<mxfile host="app.diagrams.net" modified="2023-09-15T06:47:11.275Z" agent="Mozilla/5.0 (Macintosh; Intel Mac OS X 10_15_7) AppleWebKit/605.1.15 (KHTML, like Gecko) Version/16.6 Safari/605.1.15" etag="2XYwYxbSgSFoQSfoDq19" version="21.7.5" type="device">
  <diagram name="Page-1" id="7dq5iBuF4NVI_BzGUCOx">
    <mxGraphModel dx="954" dy="727" grid="0" gridSize="10" guides="1" tooltips="1" connect="1" arrows="1" fold="1" page="0" pageScale="1" pageWidth="850" pageHeight="1100" math="0" shadow="0">
      <root>
        <mxCell id="0" />
        <mxCell id="1" parent="0" />
        <mxCell id="9miko9YmAMsTaBrA5f3_-1" value="" style="sketch=0;points=[[0,0,0],[0.25,0,0],[0.5,0,0],[0.75,0,0],[1,0,0],[0,1,0],[0.25,1,0],[0.5,1,0],[0.75,1,0],[1,1,0],[0,0.25,0],[0,0.5,0],[0,0.75,0],[1,0.25,0],[1,0.5,0],[1,0.75,0]];outlineConnect=0;fontColor=#232F3E;fillColor=#ED7100;strokeColor=#ffffff;dashed=0;verticalLabelPosition=bottom;verticalAlign=top;align=center;html=1;fontSize=12;fontStyle=0;aspect=fixed;shape=mxgraph.aws4.resourceIcon;resIcon=mxgraph.aws4.lambda;" parent="1" vertex="1">
          <mxGeometry x="368" y="45" width="78" height="78" as="geometry" />
        </mxCell>
        <mxCell id="9miko9YmAMsTaBrA5f3_-2" value="Lambda" style="text;html=1;align=center;verticalAlign=middle;resizable=0;points=[];autosize=1;strokeColor=none;fillColor=none;fontSize=16;" parent="1" vertex="1">
          <mxGeometry x="369" y="123" width="76" height="31" as="geometry" />
        </mxCell>
        <mxCell id="iFEfiFxCPsthdCIv3LDl-2" style="edgeStyle=orthogonalEdgeStyle;rounded=0;orthogonalLoop=1;jettySize=auto;html=1;" edge="1" parent="1" source="9miko9YmAMsTaBrA5f3_-4" target="iFEfiFxCPsthdCIv3LDl-1">
          <mxGeometry relative="1" as="geometry" />
        </mxCell>
        <mxCell id="9miko9YmAMsTaBrA5f3_-4" value="Client" style="whiteSpace=wrap;html=1;fontSize=16;" parent="1" vertex="1">
          <mxGeometry x="24" y="44" width="80" height="80" as="geometry" />
        </mxCell>
        <mxCell id="iFEfiFxCPsthdCIv3LDl-3" style="edgeStyle=orthogonalEdgeStyle;rounded=0;orthogonalLoop=1;jettySize=auto;html=1;" edge="1" parent="1" source="iFEfiFxCPsthdCIv3LDl-1" target="9miko9YmAMsTaBrA5f3_-1">
          <mxGeometry relative="1" as="geometry" />
        </mxCell>
        <mxCell id="iFEfiFxCPsthdCIv3LDl-1" value="" style="sketch=0;points=[[0,0,0],[0.25,0,0],[0.5,0,0],[0.75,0,0],[1,0,0],[0,1,0],[0.25,1,0],[0.5,1,0],[0.75,1,0],[1,1,0],[0,0.25,0],[0,0.5,0],[0,0.75,0],[1,0.25,0],[1,0.5,0],[1,0.75,0]];outlineConnect=0;fontColor=#232F3E;fillColor=#8C4FFF;strokeColor=#ffffff;dashed=0;verticalLabelPosition=bottom;verticalAlign=top;align=center;html=1;fontSize=12;fontStyle=0;aspect=fixed;shape=mxgraph.aws4.resourceIcon;resIcon=mxgraph.aws4.cloudfront;" vertex="1" parent="1">
          <mxGeometry x="202" y="45" width="78" height="78" as="geometry" />
        </mxCell>
        <mxCell id="iFEfiFxCPsthdCIv3LDl-5" value="CloudFront&lt;br&gt;(Optional)" style="text;html=1;align=center;verticalAlign=middle;resizable=0;points=[];autosize=1;strokeColor=none;fillColor=none;fontSize=16;" vertex="1" parent="1">
          <mxGeometry x="192.5" y="123" width="97" height="50" as="geometry" />
        </mxCell>
      </root>
    </mxGraphModel>
  </diagram>
</mxfile>
